<svg width="256px" height="256px" viewBox="0 0 512 512" version="1.1" xmlns="http://www.w3.org/2000/svg"><path d=" M 238.66 100.66 C 255.03 84.23 271.72 68.09 287.85 51.43 C 353.41 116.62 418.93 181.86 484.49 247.06 C 464.62 266.91 444.64 286.64 424.80 306.51 C 379.36 261.26 333.97 215.97 288.40 170.85 C 269.02 190.29 249.44 209.54 230.08 228.99 C 254.97 229.07 279.86 228.88 304.74 229.09 C 341.51 266.02 378.60 302.64 415.50 339.44 C 438.40 362.13 461.09 385.03 484.13 407.57 C 463.83 427.35 443.96 447.58 423.80 467.51 C 372.52 416.28 321.01 365.26 269.70 314.06 C 256.33 313.92 242.96 314.03 229.59 314.01 C 285.43 369.72 341.47 425.25 397.29 480.99 C 307.20 481.01 217.10 481.00 127.00 481.00 C 127.00 454.00 127.00 427.00 127.00 400.00 C 149.94 399.98 172.88 399.49 195.81 399.42 C 138.58 342.73 81.58 285.81 24.46 229.01 C 52.89 228.96 81.33 229.05 109.76 228.96 C 152.68 186.14 195.71 143.44 238.66 100.66 Z" /></svg>