<svg width="30px" height="30px" viewBox="0 0 110 110" version="1.1" xmlns="http://www.w3.org/2000/svg"><path d=" M 53.35 14.46 C 57.11 13.43 61.84 13.17 64.98 15.95 C 67.30 17.68 69.00 20.08 70.47 22.55 C 81.65 41.68 93.02 60.69 104.30 79.77 C 106.69 83.72 108.89 88.37 107.69 93.10 C 106.47 98.22 100.98 101.31 95.96 101.14 C 70.97 101.22 45.98 101.17 20.99 101.17 C 16.12 101.49 10.71 99.16 8.75 94.46 C 6.92 89.94 8.63 84.98 10.99 81.01 C 22.47 61.52 34.10 42.11 45.51 22.58 C 47.40 19.29 49.92 16.21 53.35 14.46 M 25.99 79.05 C 23.92 82.57 21.68 86.00 20.00 89.73 C 45.33 89.97 70.68 89.99 96.01 89.72 C 93.06 83.60 89.20 77.98 85.87 72.06 C 76.51 56.55 67.67 40.71 58.00 25.39 C 46.94 43.03 36.75 61.22 25.99 79.05 Z" /><path d=" M 53.42 45.00 C 56.51 45.00 59.60 45.00 62.70 45.00 C 62.23 53.48 61.80 61.96 61.32 70.44 C 59.14 70.43 56.96 70.43 54.78 70.44 C 54.31 61.96 53.88 53.48 53.42 45.00 Z" /><path d=" M 55.28 75.36 C 58.20 73.89 62.90 75.18 62.70 79.04 C 63.21 82.80 58.57 84.84 55.58 83.26 C 52.57 81.93 52.52 76.99 55.28 75.36 Z" /></svg>
