<svg width="30px" height="30px" viewBox="0 0 128 128" version="1.1" xmlns="http://www.w3.org/2000/svg"><path d=" M 50.70 30.73 C 53.86 20.81 57.05 10.39 63.85 2.28 C 70.58 10.42 73.78 20.80 76.94 30.70 C 79.59 28.81 82.45 27.09 84.48 24.49 C 87.71 20.44 89.67 15.59 92.32 11.18 C 98.34 16.60 103.75 23.61 104.31 31.99 C 104.84 38.06 102.00 43.83 97.95 48.18 C 99.49 40.48 99.77 30.56 92.40 25.66 C 89.26 35.83 82.98 46.07 72.71 50.20 C 71.04 42.03 68.86 33.46 63.63 26.79 C 59.08 33.85 56.43 41.99 54.92 50.21 C 44.72 46.07 38.44 35.96 35.30 25.83 C 27.73 30.47 28.24 40.58 29.73 48.20 C 25.64 43.82 22.77 37.95 23.37 31.83 C 24.00 23.52 29.33 16.44 35.47 11.18 C 37.76 15.51 39.84 19.99 42.75 23.96 C 44.82 26.83 47.87 28.71 50.70 30.73 Z" /><path d=" M 34.06 33.78 C 36.45 41.54 41.26 48.38 47.50 53.54 C 50.67 56.65 54.87 59.04 56.92 63.09 C 61.50 81.86 56.39 101.79 46.95 118.24 C 50.72 104.82 54.76 90.86 52.65 76.79 C 51.84 70.94 49.01 65.30 44.10 61.84 C 35.93 55.35 30.03 44.20 34.06 33.78 Z" /><path d=" M 87.24 46.15 C 90.15 42.48 91.99 38.14 93.71 33.82 C 96.18 41.00 94.53 49.09 89.95 55.05 C 85.86 61.23 77.96 64.45 76.13 72.15 C 71.84 87.55 76.46 103.60 80.90 118.43 C 71.82 103.09 66.96 84.69 69.91 66.90 C 70.28 64.84 70.45 62.54 72.03 60.97 C 76.86 55.79 83.01 51.92 87.24 46.15 Z" /><path d=" M 63.49 37.86 C 65.28 39.32 65.55 41.73 66.16 43.80 C 67.30 48.89 68.34 54.03 68.93 59.22 C 66.80 66.68 66.35 74.46 65.79 82.16 C 65.02 94.37 64.62 106.60 64.18 118.82 C 64.06 120.96 63.72 123.08 63.36 125.18 C 63.50 122.47 63.61 119.75 63.43 117.03 C 62.69 100.96 62.50 84.83 60.65 68.83 C 60.37 65.53 59.42 62.36 58.71 59.15 C 59.78 51.97 60.70 44.62 63.49 37.86 Z" /><path d=" M 22.34 54.38 C 25.23 51.97 30.13 54.22 30.22 57.97 C 30.70 61.60 26.37 64.62 23.15 62.81 C 19.87 61.40 19.41 56.39 22.34 54.38 Z" /><path d=" M 99.36 54.29 C 102.00 52.25 106.30 53.86 106.97 57.12 C 108.21 60.93 103.64 64.79 100.10 62.83 C 96.74 61.44 96.28 56.24 99.36 54.29 Z" /><path d=" M 13.38 66.84 C 16.62 69.66 20.47 72.46 25.01 72.15 C 29.52 72.03 32.60 67.87 37.06 67.53 C 42.46 66.89 46.68 72.14 47.26 77.09 C 48.51 83.93 45.07 90.62 40.44 95.43 C 34.73 101.33 27.66 105.88 20.11 109.03 C 25.86 104.97 31.39 100.47 35.89 95.02 C 38.38 91.90 40.76 88.07 40.02 83.90 C 39.78 81.42 38.48 78.93 36.14 77.86 C 31.08 75.37 25.08 78.53 20.07 75.89 C 16.55 74.10 14.66 70.40 13.38 66.84 Z" /><path d=" M 102.99 72.16 C 107.36 72.27 110.99 69.51 114.16 66.84 C 112.88 70.25 111.12 73.77 107.84 75.66 C 102.51 78.86 95.68 74.89 90.44 78.39 C 86.57 81.33 86.62 87.33 89.00 91.20 C 93.41 98.62 100.51 103.87 107.24 109.06 C 98.05 104.86 88.97 99.20 83.30 90.61 C 80.12 85.81 78.99 79.54 81.02 74.07 C 82.50 70.53 85.83 67.19 89.95 67.49 C 94.80 67.60 98.10 72.30 102.99 72.16 Z" /><path d=" M 25.42 83.42 C 28.97 81.17 33.95 84.97 32.64 88.99 C 31.94 92.49 27.07 93.95 24.56 91.41 C 22.06 89.33 22.57 84.93 25.42 83.42 Z" /><path d=" M 97.35 83.34 C 100.53 81.49 105.02 84.35 104.53 88.04 C 104.57 91.60 100.11 93.95 97.14 92.04 C 93.84 90.28 93.96 84.94 97.35 83.34 Z" /><path d=" M 38.40 102.42 C 41.28 100.00 46.19 102.23 46.30 105.97 C 46.79 109.64 42.42 112.62 39.19 110.84 C 35.94 109.44 35.45 104.40 38.40 102.42 Z" /><path d=" M 83.36 102.29 C 86.26 100.05 90.89 102.34 91.06 105.94 C 91.55 109.57 87.25 112.66 83.99 110.82 C 80.62 109.42 80.26 104.19 83.36 102.29 Z" /></svg>