<svg width="30px" height="30px" viewBox="0 0 122 122" version="1.1" xmlns="http://www.w3.org/2000/svg"><path d=" M 49.96 13.84 C 59.33 14.85 69.14 16.50 77.12 21.85 C 82.02 25.11 85.22 31.12 84.03 37.05 C 82.39 47.63 73.85 54.94 68.77 63.85 C 63.13 73.21 58.52 84.55 61.59 95.57 C 63.98 104.29 71.35 110.46 79.25 114.18 C 68.10 113.36 56.09 111.27 47.44 103.64 C 39.09 96.46 37.97 83.40 43.11 74.04 C 49.07 61.90 62.10 55.18 67.90 42.93 C 71.43 35.62 68.89 26.37 62.89 21.14 C 59.31 17.54 54.46 15.91 49.96 13.84 Z" /><path d=" M 49.76 41.97 C 50.37 36.02 53.47 30.42 57.98 26.52 C 56.20 29.81 53.45 33.00 53.77 36.98 C 54.13 41.11 57.44 43.96 60.41 46.43 C 58.03 49.29 55.47 52.00 52.82 54.60 C 50.81 50.72 49.34 46.41 49.76 41.97 Z" /><path d=" M 68.55 71.07 C 71.06 67.02 73.48 62.89 76.51 59.20 C 82.32 65.48 87.49 73.15 87.96 81.96 C 88.63 91.50 83.42 100.52 76.41 106.62 C 78.92 100.11 80.60 92.99 79.16 86.02 C 78.02 79.77 73.88 74.39 68.55 71.07 Z" /></svg>