<svg width="30px" height="30px" viewBox="0 0 128 128" version="1.1" xmlns="http://www.w3.org/2000/svg"><path d=" M 35.70 17.81 C 40.45 13.40 47.40 12.67 53.59 12.39 C 54.81 21.54 53.95 30.80 54.20 40.00 C 53.94 44.76 54.93 49.71 53.34 54.31 C 50.05 57.03 45.20 56.66 41.32 55.63 C 39.17 55.35 38.90 52.73 38.66 51.00 C 38.39 39.88 36.29 28.86 35.70 17.81 Z" /><path d=" M 57.88 35.71 C 57.37 27.92 57.94 20.14 58.79 12.40 C 64.45 12.36 70.46 11.66 75.62 14.52 C 75.69 20.45 75.67 26.39 75.63 32.33 C 69.69 33.31 63.76 34.39 57.88 35.71 Z" /><path d=" M 79.51 15.23 C 85.28 14.65 91.42 16.33 95.10 21.04 C 96.00 24.46 96.75 28.04 95.63 31.50 C 90.19 31.39 84.87 32.70 79.43 32.39 C 79.18 26.67 79.59 20.95 79.51 15.23 Z" /><path d=" M 21.07 22.29 C 24.49 20.51 28.23 19.00 32.16 19.51 C 33.29 31.31 34.66 43.08 35.43 54.91 C 31.39 57.50 26.40 57.83 21.88 56.39 C 19.67 48.00 16.49 39.92 13.66 31.74 C 13.16 27.30 17.74 24.34 21.07 22.29 Z" /><path d=" M 93.52 34.23 C 97.03 33.63 100.59 33.58 104.14 33.54 C 108.65 42.36 110.90 52.09 112.52 61.79 C 113.31 66.28 114.38 70.93 113.42 75.47 C 107.28 80.74 100.38 85.09 93.86 89.90 C 87.61 94.43 80.81 98.18 74.69 102.88 C 74.52 106.97 77.16 110.72 77.80 114.76 C 67.52 112.76 57.29 110.33 46.99 108.41 C 37.76 110.19 28.67 112.83 19.48 114.87 C 19.54 111.95 19.41 109.00 19.98 106.11 C 20.80 102.29 20.17 98.33 20.93 94.49 C 21.39 92.12 21.66 89.67 21.38 87.26 C 17.01 77.46 15.87 66.65 14.58 56.12 C 14.47 53.73 14.45 51.33 14.61 48.94 C 17.41 52.74 18.71 57.30 20.70 61.50 C 32.01 62.48 43.46 61.29 54.80 62.11 C 52.19 67.58 48.66 72.54 46.01 77.98 L 47.96 77.61 C 51.59 73.96 53.93 69.24 57.54 65.57 C 64.22 62.86 70.93 60.11 77.79 57.81 C 80.46 56.90 83.18 55.81 85.04 53.60 C 80.21 53.61 75.88 56.53 71.00 56.31 C 66.47 56.68 62.14 54.13 59.56 50.52 C 57.98 47.19 57.68 43.40 57.74 39.76 C 69.08 35.29 81.49 34.78 93.52 34.23 Z" /></svg>
