<svg width="30px" height="30px" viewBox="0 0 128 128" version="1.1" xmlns="http://www.w3.org/2000/svg"><path d=" M 87.76 27.72 C 92.14 23.20 96.79 18.95 101.02 14.29 C 103.84 14.19 106.66 14.22 109.48 14.32 C 101.48 21.70 93.70 29.33 85.67 36.67 C 83.02 36.99 80.23 36.66 77.71 37.72 C 74.30 40.00 74.37 44.61 75.31 48.17 C 73.01 46.61 70.59 45.27 68.16 43.92 C 68.57 41.57 68.80 39.16 69.54 36.88 C 73.92 32.29 78.77 28.17 83.23 23.65 C 84.71 25.04 86.23 26.39 87.76 27.72 Z" /><path d=" M 18.11 14.27 C 20.79 14.25 23.48 14.11 26.17 14.29 C 30.96 18.54 35.25 23.33 39.88 27.76 C 41.42 26.40 42.93 25.03 44.46 23.67 C 48.51 27.58 52.53 31.53 56.63 35.39 C 59.08 37.47 58.69 41.00 59.57 43.82 C 57.15 45.19 54.69 46.49 52.41 48.10 C 52.87 45.05 53.53 41.41 51.23 38.92 C 48.90 36.38 45.10 36.88 41.99 36.85 C 34.12 29.22 26.01 21.86 18.11 14.27 Z" /><path d=" M 14.51 17.86 C 22.44 25.53 30.45 33.13 38.26 40.91 C 38.72 43.44 37.99 46.34 39.70 48.56 C 41.26 50.83 44.27 50.87 46.66 51.60 C 45.51 52.09 44.36 52.58 43.20 53.07 C 43.12 54.87 43.08 56.67 43.05 58.47 C 41.26 57.86 39.03 57.97 37.65 56.50 C 33.53 52.47 29.33 48.52 25.21 44.48 C 25.79 42.57 27.57 41.34 28.75 39.81 C 23.95 35.26 19.30 30.54 14.44 26.04 C 14.41 23.32 14.40 20.59 14.51 17.86 Z" /><path d=" M 90.49 39.56 C 98.06 32.38 105.55 25.12 113.12 17.95 C 112.81 21.10 114.31 25.08 111.61 27.50 C 107.39 31.59 103.17 35.69 98.96 39.80 C 100.20 41.29 101.43 42.79 102.66 44.28 C 98.13 48.65 93.56 52.98 89.05 57.37 C 87.54 57.68 86.04 58.05 84.54 58.42 C 84.52 56.68 84.49 54.94 84.46 53.21 C 83.28 52.61 82.10 52.02 80.91 51.45 C 83.27 50.89 86.12 50.80 87.76 48.74 C 90.04 46.08 87.24 41.64 90.49 39.56 Z" /><path d=" M 53.63 59.42 C 57.00 57.55 60.44 55.82 63.69 53.75 C 66.72 56.01 70.11 57.68 73.33 59.63 C 73.27 63.34 73.22 67.05 73.29 70.76 C 70.00 72.77 66.49 74.42 63.25 76.52 C 60.17 74.32 56.79 72.60 53.56 70.65 C 53.61 66.91 53.66 63.16 53.63 59.42 Z" /><path d=" M 38.18 70.05 C 39.40 68.42 41.57 68.23 43.31 67.47 C 43.33 70.33 43.34 73.19 43.29 76.05 C 40.80 78.26 40.94 81.68 41.24 84.70 C 33.60 93.12 26.16 101.73 18.31 109.96 C 18.26 106.99 18.24 104.02 18.33 101.05 C 22.94 96.51 27.19 91.62 31.65 86.93 C 30.37 85.36 27.24 84.51 27.27 82.30 C 30.79 78.12 34.71 74.29 38.18 70.05 Z" /><path d=" M 84.57 67.51 C 86.41 68.18 88.54 68.54 89.77 70.24 C 93.27 74.29 97.02 78.13 100.48 82.20 C 100.85 84.58 97.38 85.32 96.11 86.93 C 100.72 91.53 104.99 96.46 109.51 101.15 C 109.62 104.17 109.60 107.20 109.52 110.22 C 102.08 101.62 94.22 93.39 86.77 84.79 C 87.22 81.71 87.03 78.37 84.57 76.15 C 84.54 73.27 84.54 70.39 84.57 67.51 Z" /><path d=" M 66.74 87.28 C 68.56 86.01 70.39 84.77 72.23 83.54 C 73.54 85.49 74.73 87.93 77.17 88.63 C 79.23 89.67 81.46 88.61 83.59 88.41 C 90.69 96.98 98.30 105.11 105.53 113.57 C 102.69 113.46 99.85 113.32 97.02 113.16 C 92.88 108.13 88.78 103.06 84.62 98.04 C 82.85 99.32 81.16 100.70 79.39 101.97 C 75.22 97.03 70.96 92.17 66.74 87.28 Z" /><path d=" M 55.47 83.53 C 57.39 84.76 59.31 85.98 61.26 87.16 C 56.95 92.04 52.70 96.98 48.51 101.95 C 46.69 100.69 44.98 99.28 43.25 97.90 C 39.12 103.07 35.02 108.27 30.66 113.24 C 27.82 113.31 24.99 113.46 22.15 113.56 C 29.75 105.40 36.92 96.86 44.30 88.51 C 46.82 88.70 49.51 89.28 51.92 88.23 C 53.51 87.01 54.43 85.18 55.47 83.53 Z" /></svg>
