<svg width="30px" height="30px" viewBox="0 0 128 128" version="1.1" xmlns="http://www.w3.org/2000/svg"><path d=" M 42.25 33.77 C 49.38 26.39 56.74 19.22 63.97 11.94 C 71.18 19.20 78.43 26.43 85.63 33.71 C 78.41 40.95 71.22 48.23 63.96 55.45 C 56.72 48.22 49.53 40.95 42.25 33.77 Z" /><path d=" M 13.94 62.05 C 21.30 54.95 28.39 47.58 35.66 40.38 C 42.84 47.69 50.17 54.85 57.33 62.18 C 50.13 69.43 42.87 76.62 35.68 83.88 C 28.37 76.67 21.12 69.40 13.94 62.05 Z" /><path d=" M 70.66 62.20 C 77.81 54.85 85.16 47.70 92.34 40.38 C 99.54 47.72 106.99 54.84 114.03 62.33 C 106.64 69.34 99.65 76.77 92.36 83.88 C 85.11 76.67 77.91 69.42 70.66 62.20 Z" /><path d=" M 39.92 93.83 C 48.00 85.67 56.16 77.58 64.27 69.44 C 72.07 77.45 79.98 85.37 87.73 93.43 C 88.52 103.54 87.74 113.75 87.96 123.90 C 80.09 115.83 72.15 107.82 64.30 99.73 C 56.17 107.81 48.15 115.98 40.00 124.02 C 39.91 113.96 40.01 103.89 39.92 93.83 Z" /></svg>