<svg width="30px" height="30px" viewBox="0 0 512 512" version="1.1" xmlns="http://www.w3.org/2000/svg"><path d=" M 239.80 33.68 C 250.59 29.77 262.84 30.12 273.43 34.54 C 287.09 40.07 297.69 52.51 300.91 66.91 C 302.85 75.18 302.22 83.94 299.43 91.94 C 325.13 106.69 350.88 121.35 376.53 136.19 C 383.60 128.18 393.34 122.53 403.96 120.96 C 418.64 118.48 434.37 123.55 444.75 134.25 C 455.33 144.81 460.16 160.74 457.17 175.39 C 453.88 193.48 438.76 208.68 420.57 211.73 C 420.56 241.24 420.56 270.75 420.57 300.27 C 431.61 302.26 441.81 308.45 448.54 317.44 C 456.36 327.50 459.61 340.96 457.28 353.49 C 454.89 367.58 445.41 380.24 432.61 386.59 C 420.48 392.80 405.60 393.29 393.09 387.89 C 386.64 385.33 381.26 380.80 376.54 375.81 C 350.86 390.60 325.15 405.33 299.44 420.05 C 302.91 429.94 302.97 441.07 299.13 450.87 C 294.46 463.83 283.51 474.26 270.46 478.57 C 259.57 482.30 247.27 481.78 236.75 477.11 C 220.62 470.29 209.19 453.60 208.98 436.04 C 208.69 430.60 210.04 425.29 211.42 420.08 C 185.86 405.15 160.07 390.60 134.43 375.82 C 127.61 383.55 118.30 389.06 108.11 390.85 C 92.92 393.73 76.40 388.53 65.78 377.24 C 55.67 366.83 51.04 351.47 53.70 337.20 C 56.82 318.88 72.03 303.35 90.43 300.25 C 90.44 270.75 90.44 241.24 90.43 211.73 C 78.90 209.67 68.37 202.99 61.60 193.42 C 54.04 183.08 51.26 169.43 54.01 156.92 C 56.25 146.33 62.42 136.65 70.99 130.06 C 81.35 121.98 95.23 118.72 108.12 121.14 C 118.30 122.95 127.62 128.45 134.43 136.18 C 160.14 121.45 185.84 106.71 211.52 91.93 C 208.02 81.73 208.04 70.29 212.18 60.29 C 216.94 47.97 227.35 38.04 239.80 33.68 M 143.48 151.86 C 146.68 161.36 146.84 171.86 143.62 181.38 C 177.84 201.13 212.18 220.68 246.42 240.39 C 246.47 201.10 246.39 161.80 246.46 122.51 C 236.50 120.55 227.40 115.13 220.63 107.61 C 194.91 122.35 169.18 137.08 143.48 151.86 M 264.67 122.45 C 264.44 161.76 264.62 201.08 264.58 240.39 C 298.81 220.66 333.21 201.19 367.38 181.33 C 364.18 171.85 364.26 161.31 367.59 151.88 C 341.89 137.06 316.10 122.41 290.40 107.59 C 283.67 115.10 274.60 120.53 264.67 122.45 M 134.48 197.08 C 127.85 204.71 118.51 209.75 108.64 211.70 C 108.61 241.19 108.64 270.69 108.62 300.19 C 118.46 302.33 127.85 307.22 134.48 314.91 C 168.76 295.30 203.04 275.69 237.27 256.00 C 203.05 236.29 168.74 216.72 134.48 197.08 M 273.82 256.00 C 307.97 275.77 342.29 295.23 376.48 314.93 C 383.10 307.22 392.52 302.35 402.37 300.24 C 402.38 270.74 402.38 241.24 402.37 211.75 C 392.48 209.69 383.17 204.67 376.47 197.06 C 342.29 216.76 307.96 236.23 273.82 256.00 M 143.63 330.62 C 146.84 340.14 146.68 350.64 143.48 360.13 C 169.19 374.89 194.89 389.66 220.62 404.38 C 227.39 396.95 236.39 391.41 246.33 389.55 C 246.57 350.24 246.38 310.92 246.42 271.61 C 212.17 291.31 177.82 310.83 143.63 330.62 M 264.58 271.61 C 264.62 310.92 264.44 350.23 264.67 389.54 C 274.56 391.48 283.68 396.85 290.34 404.40 C 316.05 389.67 341.76 374.94 367.45 360.17 C 364.42 350.64 364.10 340.18 367.38 330.67 C 333.21 310.81 298.83 291.32 264.58 271.61 Z" /></svg>
