<svg width="256px" height="256px" viewBox="0 0 512 512" version="1.1" xmlns="http://www.w3.org/2000/svg"><path d=" M 71.64 50.07 C 79.59 46.31 88.96 46.07 97.25 48.82 C 105.41 51.37 112.50 56.49 118.57 62.41 C 134.74 78.97 150.49 96.00 164.67 114.31 C 173.26 125.68 181.59 137.42 187.57 150.42 C 190.32 156.70 192.54 163.35 192.82 170.26 C 174.62 158.09 155.65 147.12 136.34 136.82 C 126.85 131.76 117.89 125.28 111.31 116.67 C 101.41 103.97 96.33 88.40 91.86 73.15 C 88.65 63.28 82.48 52.68 71.64 50.07 Z" /><path d=" M 417.09 48.40 C 425.10 46.01 433.90 46.63 441.52 50.05 C 434.03 51.67 428.48 57.60 424.98 64.12 C 421.00 71.28 419.53 79.42 416.82 87.06 C 412.28 99.94 406.33 112.74 396.56 122.52 C 387.01 132.29 374.37 137.93 362.61 144.49 C 348.07 152.45 333.97 161.17 320.10 170.25 C 320.85 158.60 326.18 147.93 331.99 138.04 C 348.25 111.43 369.53 88.37 390.99 65.92 C 398.16 58.19 406.79 51.29 417.09 48.40 Z" /><path d=" M 34.14 94.20 C 32.95 84.72 33.94 75.10 36.52 65.93 C 37.11 70.29 38.44 74.56 40.75 78.32 C 47.04 88.97 56.42 97.31 65.98 104.97 C 85.17 119.71 106.50 131.37 128.15 142.03 C 162.30 159.13 192.97 182.98 218.35 211.49 C 233.02 228.04 246.26 246.03 256.51 265.68 C 272.56 235.27 295.02 208.51 320.56 185.61 C 336.21 171.82 353.21 159.55 371.35 149.23 C 385.07 141.47 399.54 135.12 413.15 127.16 C 431.73 116.44 450.16 104.65 464.69 88.66 C 470.35 82.19 475.54 74.69 476.52 65.92 C 480.99 81.42 480.06 98.27 474.04 113.23 C 465.46 135.04 448.07 152.05 429.05 165.10 C 418.87 171.91 408.23 178.07 397.08 183.14 C 386.72 188.30 375.70 191.97 365.41 197.28 C 334.64 212.76 306.14 233.47 283.82 259.85 C 272.39 273.36 262.89 288.53 256.03 304.85 C 243.86 275.48 222.89 250.49 198.51 230.41 C 179.22 214.72 157.90 201.43 135.08 191.53 C 108.77 180.90 82.92 167.55 62.44 147.56 C 47.82 133.31 36.50 114.78 34.14 94.20 Z" /><path d=" M 37.96 151.94 C 60.33 177.75 91.82 194.91 125.04 202.09 C 143.50 206.20 160.98 214.48 176.00 225.95 C 195.85 240.79 211.54 260.40 224.85 281.14 C 234.96 297.46 245.22 313.68 256.13 329.48 C 267.78 313.75 278.17 297.14 288.57 280.57 C 303.95 256.40 323.05 233.89 347.60 218.66 C 360.01 210.96 373.67 205.27 387.94 202.11 C 421.14 194.91 452.64 177.78 474.98 151.97 C 470.44 161.06 465.62 170.01 460.99 179.07 C 451.49 197.20 437.71 213.64 419.57 223.58 C 410.28 228.76 400.01 232.07 389.53 233.75 C 369.52 237.27 350.36 245.86 334.57 258.66 C 311.00 276.08 294.29 300.94 280.48 326.40 C 274.51 337.68 269.07 349.25 264.43 361.14 C 259.08 361.04 253.74 361.30 248.40 360.96 C 243.38 347.49 236.98 334.57 230.10 321.95 C 219.84 303.59 207.95 285.92 192.97 271.05 C 176.97 255.70 158.01 242.83 136.48 236.78 C 127.86 233.96 118.68 233.48 110.06 230.64 C 92.35 225.33 76.78 213.99 65.35 199.56 C 53.78 185.21 46.69 168.03 37.96 151.94 Z" /><path d=" M 109.40 242.98 C 126.23 241.84 142.66 248.37 156.55 257.42 C 167.18 264.25 176.47 272.92 184.98 282.21 C 177.52 277.47 168.91 274.96 160.27 273.47 C 154.19 272.22 147.89 272.42 141.87 270.84 C 132.11 268.44 123.39 262.64 116.72 255.21 C 113.63 251.58 110.67 247.65 109.40 242.98 Z" /><path d=" M 379.13 246.30 C 387.01 243.80 395.32 242.29 403.62 242.98 C 402.49 246.91 400.26 250.40 397.70 253.55 C 391.47 261.06 383.27 267.08 373.92 270.05 C 367.24 272.37 360.07 272.10 353.19 273.38 C 344.45 274.88 335.73 277.38 328.16 282.11 C 342.16 266.60 359.10 253.00 379.13 246.30 Z" /><path d=" M 225.57 362.08 C 225.26 357.67 225.86 353.25 225.42 348.85 C 225.77 350.53 226.12 352.27 227.12 353.72 C 233.26 363.70 240.67 372.89 248.92 381.20 C 252.42 384.89 254.68 389.53 256.43 394.25 C 258.11 389.19 260.92 384.51 264.60 380.65 C 271.17 374.15 276.93 366.88 282.25 359.34 C 284.34 356.01 287.09 352.87 287.62 348.83 C 287.34 359.32 288.21 370.44 283.13 380.06 C 279.98 387.52 272.03 391.26 268.41 398.38 C 265.81 403.75 266.00 409.86 265.83 415.67 C 259.61 415.70 253.39 415.70 247.17 415.68 C 247.01 409.87 247.21 403.76 244.59 398.41 C 242.06 393.16 237.02 389.90 233.35 385.56 C 228.07 378.95 225.98 370.39 225.57 362.08 Z" /><path d=" M 202.96 384.00 C 208.38 377.29 213.36 370.07 216.56 362.02 C 212.51 385.96 202.06 409.36 184.38 426.34 C 168.23 442.05 148.73 454.77 127.09 461.40 C 116.58 464.55 105.27 465.79 94.48 463.37 C 110.57 455.46 124.97 444.24 136.89 430.87 C 142.24 424.91 146.56 417.81 153.46 413.44 C 162.21 407.75 172.27 404.62 181.97 400.96 C 190.45 397.49 197.16 390.92 202.96 384.00 Z" /><path d=" M 295.88 362.58 C 296.08 362.55 296.47 362.49 296.67 362.47 C 299.69 370.10 304.44 376.91 309.50 383.33 C 315.90 391.12 323.51 398.57 333.29 401.81 C 346.03 406.60 360.26 410.77 368.87 422.10 C 382.03 439.36 399.03 453.81 418.56 463.37 C 402.42 466.97 385.80 462.44 371.07 455.83 C 353.48 447.60 337.44 436.02 324.22 421.79 C 310.85 407.21 302.32 388.64 297.92 369.48 C 297.22 367.20 297.53 364.43 295.88 362.58 Z" /><path d=" M 163.58 382.78 C 174.32 381.03 185.47 379.29 194.93 373.55 C 189.09 385.43 180.26 396.41 168.06 402.13 C 159.11 406.62 148.84 408.37 138.90 407.32 C 139.67 399.93 143.16 392.58 149.39 388.29 C 153.53 385.23 158.53 383.57 163.58 382.78 Z" /><path d=" M 318.12 373.59 C 324.04 377.41 330.99 379.14 337.78 380.72 C 346.26 382.68 355.66 382.58 363.02 387.86 C 369.60 392.10 373.27 399.68 374.12 407.31 C 359.80 408.91 344.85 404.39 333.98 394.90 C 327.17 389.09 322.05 381.57 318.12 373.59 Z" /><path d=" M 211.64 408.81 C 215.48 402.39 222.33 398.62 229.07 395.94 C 228.84 408.66 226.80 421.43 222.56 433.46 C 218.66 444.42 212.30 454.97 202.48 461.58 C 198.65 464.20 194.25 465.78 189.85 467.15 C 195.67 457.77 200.02 447.50 203.17 436.93 C 206.03 427.58 206.34 417.28 211.64 408.81 Z" /><path d=" M 284.04 396.00 C 291.03 398.63 297.83 402.74 301.75 409.30 C 306.28 417.07 306.93 426.25 309.24 434.79 C 312.31 446.11 316.98 456.98 322.99 467.05 C 310.11 464.02 300.00 454.09 294.30 442.47 C 287.26 428.09 284.15 411.93 284.04 396.00 Z" /></svg>
