<svg width="256px" height="256px" viewBox="0 0 512 512" version="1.1" xmlns="http://www.w3.org/2000/svg"><path d=" M 226.10 55.86 C 227.66 57.78 228.60 60.11 229.75 62.28 C 247.82 100.08 257.58 142.02 257.11 183.95 C 256.81 220.63 247.75 257.21 230.77 289.73 C 221.95 306.38 215.62 324.98 216.39 344.03 C 216.99 358.54 222.46 373.59 234.05 382.89 C 242.32 389.78 253.65 392.68 264.23 390.70 C 275.19 388.76 284.81 382.27 292.38 374.32 C 293.37 379.69 292.31 385.14 291.24 390.40 C 287.07 408.29 277.35 425.35 262.32 436.26 C 250.74 444.94 236.31 449.04 222.01 450.01 C 198.97 452.13 175.18 447.56 155.05 436.00 C 138.65 426.73 124.69 413.36 114.08 397.84 C 112.29 395.11 110.42 392.41 109.12 389.40 C 115.90 393.19 122.79 396.87 130.10 399.54 C 133.97 400.78 138.07 402.16 142.15 401.11 C 128.78 387.00 123.05 367.15 122.55 348.06 C 122.47 336.14 124.35 324.21 128.11 312.90 C 131.90 302.03 138.07 292.17 144.87 282.95 C 165.02 256.50 189.65 233.64 207.97 205.77 C 222.13 184.63 232.44 160.53 235.36 135.11 C 238.76 108.41 234.22 81.32 226.10 55.86 Z" /><path d=" M 296.84 149.80 C 304.60 124.77 316.19 100.99 330.09 78.83 C 314.00 120.60 310.12 168.52 326.12 210.91 C 333.06 230.16 345.44 246.63 356.00 263.95 C 369.08 285.17 382.61 306.25 392.86 329.03 C 399.58 344.32 404.43 361.05 402.40 377.91 C 399.87 397.07 390.86 415.45 376.83 428.81 C 360.31 444.77 337.92 454.18 315.09 455.84 C 302.25 456.43 288.98 455.87 276.80 451.46 C 294.91 445.14 311.03 432.96 321.83 417.08 C 332.32 401.57 336.84 382.56 336.26 363.96 C 335.65 340.45 328.52 317.57 318.77 296.33 C 309.04 274.97 298.10 253.88 292.82 230.86 C 286.43 204.14 288.70 175.89 296.84 149.80 Z" /></svg>
