<svg width="28px" height="28px" viewBox="0 0 570 500" version="1.1" xmlns="http://www.w3.org/2000/svg"><path opacity="1.00" d=" M 255.77 20.31 C 258.09 9.49 267.87 0.83 278.98 0.27 C 285.54 0.18 292.46 -0.49 298.61 2.34 C 306.09 5.50 311.60 12.46 313.34 20.34 C 323.38 21.94 333.18 24.68 343.06 26.97 C 366.00 32.30 387.82 42.25 406.97 55.93 C 413.93 60.94 421.00 65.81 427.62 71.27 C 414.04 77.77 400.42 84.17 386.82 90.61 C 365.01 75.50 339.88 65.19 313.68 60.89 C 313.65 75.62 313.71 90.34 313.66 105.06 C 313.61 114.17 307.86 122.76 299.72 126.70 C 293.39 130.04 286.02 129.45 279.11 129.30 C 266.90 128.76 255.94 118.25 255.53 105.92 C 255.41 90.89 255.53 75.86 255.47 60.83 C 229.30 65.06 204.19 75.31 182.35 90.32 C 168.78 83.84 155.14 77.51 141.60 70.96 C 147.65 65.84 154.24 61.42 160.64 56.76 C 180.15 42.61 202.49 32.33 225.99 26.91 C 235.90 24.63 245.70 21.83 255.77 20.31 M 280.21 19.26 C 275.54 21.07 272.46 26.04 272.69 31.02 C 272.72 53.69 272.57 76.36 272.67 99.02 C 272.51 105.53 278.42 111.52 285.00 111.03 C 291.15 110.81 296.27 105.11 296.15 99.01 C 296.20 76.01 296.19 53.01 296.09 30.01 C 296.15 22.28 287.43 16.09 280.21 19.26 Z" /><path d=" M 65.84 67.88 C 106.04 86.91 146.19 106.03 186.36 125.12 C 186.36 200.79 186.39 276.46 186.35 352.13 C 169.72 340.09 154.90 324.98 144.85 306.99 C 144.61 255.71 144.80 204.41 144.76 153.12 C 118.51 124.66 92.13 96.30 65.84 67.88 Z" /><path d=" M 383.64 125.05 C 423.80 105.95 463.96 86.84 504.14 67.79 C 478.43 95.54 452.76 123.32 427.01 151.03 C 426.32 151.94 425.06 152.73 425.24 154.03 C 425.16 205.00 425.39 255.99 425.13 306.95 C 415.09 324.94 400.27 340.05 383.65 352.09 C 383.61 276.41 383.64 200.73 383.64 125.05 Z" /><path d=" M 91.58 131.33 C 101.26 141.93 110.70 152.73 120.37 163.34 C 105.79 194.26 99.88 229.14 103.43 263.14 C 106.97 298.60 120.98 332.92 143.30 360.70 C 158.56 379.91 177.85 395.72 199.25 407.63 C 199.06 422.45 199.24 437.26 199.16 452.08 C 189.12 448.04 179.48 443.04 170.31 437.29 C 170.31 445.52 170.29 453.75 170.32 461.99 C 166.87 466.52 161.74 469.95 155.95 470.36 C 147.07 471.04 138.65 466.95 131.56 461.98 C 131.52 443.85 131.64 425.72 131.50 407.60 C 117.89 394.90 107.08 379.64 96.66 364.32 C 83.59 344.50 74.79 322.09 69.75 298.94 C 55.48 298.92 41.21 298.95 26.94 298.93 C 17.73 299.00 8.74 293.85 4.05 285.94 C -1.12 277.56 -1.09 266.32 4.14 257.97 C 8.86 250.15 17.77 245.09 26.92 245.12 C 38.58 245.08 50.24 245.13 61.91 245.10 C 61.67 226.26 64.76 207.56 69.58 189.39 C 73.93 169.07 81.09 149.31 91.58 131.33 M 20.36 265.55 C 16.85 266.49 14.57 270.46 15.56 273.97 C 16.32 277.28 19.68 279.52 23.02 279.23 C 36.33 279.23 49.65 279.27 62.96 279.22 C 67.26 279.52 71.01 275.21 70.06 270.99 C 69.53 267.24 65.67 264.82 62.04 265.24 C 48.15 265.46 34.21 264.85 20.36 265.55 Z" /><path d=" M 448.80 164.25 C 458.39 153.53 467.99 142.83 477.58 132.11 C 484.05 143.27 489.30 155.13 493.30 167.39 C 496.66 177.56 498.79 188.07 501.38 198.45 C 505.12 213.70 506.94 229.40 506.86 245.10 C 519.61 245.19 532.37 244.95 545.11 245.22 C 558.65 246.01 570.15 258.46 569.82 272.03 C 570.16 285.97 558.01 298.69 544.06 298.90 C 529.04 299.00 514.01 298.89 498.99 298.95 C 495.58 314.38 490.74 329.53 483.76 343.74 C 476.19 359.71 465.68 374.02 455.06 388.06 C 449.95 394.55 444.39 400.69 438.48 406.46 C 438.41 424.96 438.45 443.46 438.44 461.96 C 431.37 466.94 422.96 471.00 414.10 470.36 C 408.29 469.96 403.14 466.54 399.67 462.00 C 399.71 453.50 399.68 445.01 399.69 436.51 C 390.71 442.22 381.29 447.27 371.44 451.31 C 371.42 436.35 371.42 421.39 371.44 406.44 C 401.10 389.95 425.96 365.04 442.51 335.42 C 471.88 283.74 474.15 217.96 448.80 164.25 M 505.30 265.43 C 501.89 266.06 499.37 269.57 499.82 273.01 C 500.13 276.51 503.41 279.39 506.94 279.21 C 520.27 279.27 533.61 279.23 546.94 279.23 C 551.01 279.68 554.90 276.14 554.65 272.02 C 554.62 268.10 550.90 264.90 547.04 265.26 C 533.13 265.36 519.20 265.01 505.30 265.43 Z" /><path d=" M 246.36 222.68 C 272.19 222.67 298.02 222.68 323.85 222.68 C 310.92 297.91 298.14 373.18 285.10 448.40 C 272.05 373.18 259.26 297.92 246.36 222.68 Z" /><path d=" M 224.55 409.41 C 231.72 409.39 238.90 409.41 246.08 409.41 C 246.08 427.37 246.18 445.33 246.03 463.29 C 238.24 474.98 229.63 486.41 224.54 499.65 C 224.56 469.57 224.54 439.49 224.55 409.41 Z" /><path d=" M 323.93 409.37 C 331.10 409.43 338.28 409.37 345.45 409.40 C 345.46 439.50 345.44 469.61 345.46 499.71 C 340.91 488.04 333.84 477.57 326.65 467.39 C 325.62 465.70 323.72 464.22 323.85 462.07 C 323.91 444.50 323.76 426.93 323.93 409.37 Z" /></svg>
