<svg width="128pt" height="128pt" viewBox="0 0 128 128" version="1.1" xmlns="http://www.w3.org/2000/svg"><path d=" M 47.04 15.00 C 55.51 7.47 69.25 7.00 78.57 13.24 C 82.27 15.63 84.81 19.74 85.24 24.13 C 85.87 28.70 86.88 33.23 87.06 37.86 C 86.50 37.24 85.95 36.62 85.39 36.01 C 84.38 38.36 82.96 40.45 81.52 42.55 C 82.27 42.02 83.76 40.97 84.50 40.44 C 84.69 39.89 85.07 38.77 85.26 38.21 C 87.75 38.38 85.60 40.85 85.08 42.16 C 83.30 44.24 80.67 45.46 78.56 47.19 C 78.79 46.22 79.24 45.39 79.92 44.71 C 82.29 43.66 79.22 40.56 77.60 41.97 C 82.02 42.82 77.21 45.27 75.61 45.82 C 75.03 43.87 74.52 41.90 73.97 39.94 C 77.66 35.29 82.65 30.61 81.72 24.04 C 81.20 29.81 77.82 37.59 71.06 37.36 C 69.70 34.31 72.72 32.20 74.91 30.81 C 79.17 27.97 80.72 21.70 77.71 17.41 C 71.60 8.59 56.46 8.52 50.25 17.24 C 46.88 21.79 48.83 28.52 53.53 31.30 C 55.99 32.45 58.08 35.18 56.43 37.91 C 50.26 36.61 46.28 30.37 46.53 24.26 C 44.85 30.71 50.41 35.39 53.89 39.99 C 53.33 41.93 52.79 43.88 52.22 45.82 C 51.22 45.38 50.23 44.93 49.24 44.47 C 49.18 44.96 49.06 45.96 49.00 46.45 L 46.57 46.20 C 47.34 45.06 48.06 43.87 48.49 42.55 C 48.82 42.62 49.47 42.76 49.80 42.83 L 49.97 42.23 C 49.11 41.88 48.25 41.52 47.39 41.17 L 47.35 43.32 C 44.88 41.29 43.51 38.41 42.04 35.65 C 41.98 39.02 44.25 41.51 46.77 43.42 C 45.42 44.00 43.19 44.08 42.76 42.29 C 40.85 38.91 40.53 34.86 41.50 31.13 C 41.04 30.46 40.58 29.79 40.11 29.11 C 39.03 35.45 36.25 41.35 34.86 47.62 C 33.65 58.40 32.50 69.19 31.41 79.99 C 31.36 81.29 29.74 81.60 28.99 82.40 C 28.93 83.85 28.87 85.30 28.82 86.75 C 25.47 86.95 21.20 85.67 18.99 89.04 C 17.59 89.05 16.19 89.07 14.78 89.08 C 15.87 81.17 18.54 73.54 22.43 66.57 C 25.88 56.76 28.60 46.64 32.94 37.16 C 34.63 33.32 37.62 30.35 40.39 27.31 C 40.89 28.27 41.42 29.22 41.94 30.17 C 42.31 24.84 42.75 18.79 47.04 15.00 Z" /><path d=" M 53.13 19.99 C 58.20 12.61 71.66 13.02 75.58 21.34 C 77.47 25.93 73.97 30.12 70.28 32.38 C 69.57 31.96 68.86 31.54 68.16 31.11 C 71.37 31.89 72.04 28.21 71.17 26.10 C 69.29 21.27 62.19 19.98 58.58 23.63 C 56.72 25.10 56.04 27.76 56.82 29.97 C 60.13 33.47 65.47 30.42 69.20 32.91 C 64.39 33.75 58.67 33.76 54.90 30.18 C 51.92 27.82 50.96 23.19 53.13 19.99 Z" /><path d=" M 59.31 30.39 C 59.88 28.22 61.36 25.83 63.94 26.12 C 66.58 25.76 68.10 28.17 68.70 30.37 C 65.66 31.49 62.36 31.45 59.31 30.39 Z" /><path d=" M 86.94 27.00 C 90.44 30.04 93.58 33.62 95.42 37.92 C 99.52 47.21 102.23 57.02 105.58 66.58 C 109.46 73.55 112.14 81.18 113.22 89.09 C 111.80 89.07 110.38 89.05 108.96 89.02 C 106.81 85.61 102.49 87.00 99.17 86.74 C 99.12 85.26 99.08 83.79 99.03 82.32 C 98.21 81.78 97.39 81.23 96.57 80.68 C 95.90 71.41 94.63 62.19 93.75 52.94 C 93.26 43.91 89.04 35.69 86.94 27.00 Z" /><path d=" M 58.22 49.65 C 62.23 48.51 66.69 48.49 70.62 49.96 L 70.39 51.58 C 66.18 51.32 61.95 51.01 57.73 51.71 L 57.35 50.05 L 58.22 49.65 Z" /><path d=" M 41.44 50.95 C 45.60 58.08 46.57 67.13 44.45 75.06 C 43.65 79.46 38.05 81.28 38.39 86.01 C 38.20 89.64 38.61 93.88 41.56 96.38 C 43.69 98.44 46.94 97.65 49.59 98.21 C 48.27 100.29 47.10 102.50 45.40 104.31 C 42.86 106.82 39.35 107.89 36.14 109.25 C 36.57 107.24 38.14 105.11 37.26 103.00 C 36.51 101.90 35.32 101.16 34.64 100.01 C 33.81 95.15 33.69 90.20 33.62 85.28 C 38.21 81.19 41.13 75.16 40.86 68.95 C 43.29 63.26 42.85 56.84 41.44 50.95 Z" /><path d=" M 82.51 66.00 C 82.79 60.79 83.69 55.42 86.54 50.94 C 85.17 56.83 84.70 63.24 87.13 68.93 C 86.80 75.14 89.86 80.94 94.16 85.23 C 94.67 89.82 93.99 94.55 93.52 99.15 C 93.45 100.90 91.56 101.64 90.73 103.01 C 89.87 105.12 91.43 107.24 91.86 109.25 C 88.66 107.89 85.14 106.83 82.60 104.31 C 80.90 102.51 79.74 100.30 78.42 98.23 C 81.29 97.67 84.87 98.44 86.96 95.90 C 89.68 93.03 89.86 88.71 89.52 84.99 C 89.46 81.90 86.36 80.37 84.89 77.97 C 82.73 74.41 82.31 70.09 82.51 66.00 Z" /><path d=" M 58.56 63.75 C 62.30 62.85 66.32 62.83 70.02 63.92 C 69.97 64.38 69.88 65.29 69.83 65.75 C 65.95 65.14 62.04 65.17 58.16 65.74 C 58.12 65.28 58.04 64.38 58.00 63.92 L 58.56 63.75 Z" /><path d=" M 57.92 78.35 C 57.45 76.47 59.78 76.95 60.80 76.53 C 64.00 76.03 67.25 76.41 70.36 77.21 C 70.02 79.61 67.51 78.29 66.04 78.39 C 63.34 77.82 60.55 79.09 57.92 78.35 Z" /><path d=" M 57.31 89.56 C 58.88 88.99 60.36 88.22 61.88 87.52 C 61.82 88.96 61.76 90.40 61.71 91.85 C 57.64 92.71 55.85 97.10 56.65 100.89 C 55.53 101.59 54.40 102.30 53.28 103.02 C 52.93 101.00 52.71 98.96 52.38 96.94 C 51.00 95.68 49.99 94.21 50.03 92.27 C 51.74 93.26 53.46 94.48 55.55 94.48 C 56.08 91.50 52.66 91.57 51.49 89.72 C 53.37 88.79 55.37 89.87 57.31 89.56 Z" /><path d=" M 66.10 87.50 C 68.29 88.39 70.45 90.08 72.96 89.46 C 74.30 89.12 75.61 89.56 76.88 89.95 C 75.17 91.17 72.06 91.67 72.50 94.50 C 73.86 94.23 75.19 93.84 76.49 93.35 C 76.86 93.04 77.59 92.41 77.95 92.10 C 77.83 93.08 77.71 94.06 77.58 95.04 C 74.42 96.51 75.56 100.26 74.80 103.00 C 73.64 102.31 72.48 101.60 71.33 100.89 C 72.13 97.18 70.43 92.66 66.33 91.93 C 66.25 90.45 66.18 88.98 66.10 87.50 Z" /><path d=" M 21.13 92.66 C 18.28 91.71 20.20 87.09 22.91 87.78 C 25.01 88.18 28.84 86.37 29.31 89.53 C 26.99 89.64 24.66 89.63 22.34 89.55 C 22.09 89.88 21.58 90.53 21.33 90.86 C 23.95 90.97 26.59 90.96 29.21 90.79 L 28.85 92.79 C 26.28 92.93 23.68 93.07 21.13 92.66 Z" /><path d=" M 98.65 89.51 C 99.22 86.41 102.94 88.16 105.04 87.77 C 107.59 87.27 107.95 89.87 108.30 91.70 C 109.99 92.09 111.80 91.37 113.53 91.44 C 113.97 93.73 114.33 96.03 114.66 98.34 C 112.92 98.31 111.18 98.27 109.45 98.22 C 106.95 94.56 102.12 96.53 98.46 96.01 C 98.64 95.50 99.01 94.47 99.19 93.96 C 102.09 93.72 104.99 93.94 107.89 93.97 C 105.33 92.05 101.98 93.12 99.04 92.89 C 99.03 92.36 99.00 91.31 98.98 90.78 C 101.60 90.97 104.22 91.01 106.84 90.80 C 104.80 88.47 101.32 90.10 98.65 89.51 Z" /><path d=" M 63.20 89.05 C 63.60 89.05 64.40 89.04 64.80 89.04 C 64.75 90.59 64.70 92.14 64.64 93.69 C 64.32 93.69 63.68 93.70 63.36 93.70 C 63.30 92.15 63.25 90.60 63.20 89.05 Z" /><path d=" M 14.41 91.51 C 15.87 91.55 17.32 91.60 18.78 91.65 C 21.00 95.15 25.42 93.43 28.82 93.95 C 29.00 94.47 29.36 95.49 29.54 96.01 C 25.87 96.55 21.05 94.56 18.54 98.22 C 16.81 98.27 15.08 98.31 13.35 98.35 C 13.67 96.06 14.02 93.78 14.41 91.51 Z" /><path d=" M 21.17 97.11 C 23.84 96.86 26.54 96.95 29.22 97.13 L 30.09 99.70 C 27.01 98.73 23.77 98.79 20.61 99.23 C 23.20 102.19 29.14 97.75 30.34 102.10 C 26.95 102.02 23.50 102.45 20.17 101.80 C 18.57 100.34 19.25 97.87 21.17 97.11 Z" /><path d=" M 98.78 97.13 C 101.46 96.93 104.18 96.84 106.86 97.12 C 108.76 97.87 109.44 100.38 107.81 101.78 C 104.49 102.48 101.03 102.00 97.65 102.10 C 98.93 97.79 104.75 102.12 107.46 99.25 C 104.28 98.78 101.01 98.72 97.91 99.70 L 98.78 97.13 Z" /><path d=" M 13.05 100.88 C 14.85 101.08 16.92 100.47 18.55 101.35 C 21.52 104.44 26.13 102.71 29.93 103.08 C 29.84 105.71 29.80 108.34 29.81 110.96 C 22.92 113.89 15.90 116.50 8.88 119.09 C 10.57 113.10 12.01 107.03 13.05 100.88 Z" /><path d=" M 109.47 101.34 C 111.09 100.48 113.16 101.08 114.95 100.88 C 115.99 107.02 117.43 113.09 119.12 119.09 C 112.10 116.50 105.09 113.89 98.20 110.98 C 98.20 108.35 98.16 105.71 98.07 103.09 C 101.87 102.72 106.49 104.43 109.47 101.34 Z" /><path d=" M 57.46 107.47 C 59.15 106.18 61.33 106.65 63.29 106.56 C 62.99 110.30 62.62 114.03 62.29 117.76 C 54.81 117.73 47.33 117.79 39.84 117.70 C 45.72 114.29 51.62 110.93 57.46 107.47 Z" /><path d=" M 64.76 106.55 C 66.45 106.73 68.37 106.15 69.90 107.14 C 75.99 110.68 82.15 114.12 88.19 117.76 C 80.67 117.67 73.14 117.90 65.63 117.64 C 65.42 113.93 65.06 110.24 64.76 106.55 Z" /></svg>