<svg width="128pt" height="128pt" viewBox="0 0 128 128" version="1.1" xmlns="http://www.w3.org/2000/svg"><path d=" M 65.58 2.36 C 69.93 2.71 74.18 3.80 78.52 4.22 C 80.52 7.40 82.59 10.54 84.77 13.60 C 79.31 12.70 73.77 12.26 68.36 11.08 C 56.14 19.80 44.05 28.68 31.81 37.36 C 32.47 33.76 33.07 30.14 33.35 26.48 C 44.02 18.34 54.82 10.37 65.58 2.36 Z" /><path d=" M 30.47 11.18 C 34.60 12.09 38.77 12.87 42.98 13.27 C 38.80 16.71 34.29 19.73 30.15 23.21 C 28.07 24.81 28.35 27.78 27.84 30.10 C 25.79 42.53 24.08 55.02 21.79 67.41 C 19.66 64.39 17.46 61.42 15.19 58.50 C 17.35 45.15 19.15 31.74 21.18 18.37 C 24.36 16.07 27.44 13.65 30.47 11.18 Z" /><path d=" M 68.66 16.93 C 81.61 18.94 94.61 20.56 107.58 22.41 C 110.93 25.04 113.31 28.74 116.05 31.98 C 116.08 35.96 114.88 39.81 114.58 43.77 C 110.76 39.51 107.76 34.35 103.52 30.58 C 88.90 28.29 74.27 25.73 59.59 23.78 C 62.65 21.55 65.68 19.27 68.66 16.93 Z" /><path d=" M 71.47 29.68 C 74.86 31.75 78.17 34.16 80.52 37.43 C 83.59 41.85 85.20 47.05 86.77 52.14 C 87.21 47.76 87.05 43.34 85.82 39.09 C 92.76 45.89 89.88 56.65 86.77 64.60 C 86.21 67.38 83.60 68.36 81.35 69.49 C 81.05 68.08 80.69 66.68 80.29 65.30 C 80.88 61.76 81.36 58.13 80.59 54.57 C 80.09 57.17 80.00 59.81 79.51 62.41 C 79.05 60.12 79.01 57.78 78.79 55.47 C 79.23 54.38 79.68 53.29 80.03 52.17 C 79.25 52.46 78.46 52.74 77.66 52.99 C 78.03 51.86 78.41 50.73 78.79 49.61 C 77.67 49.76 76.64 49.38 75.67 48.88 C 75.11 45.75 71.78 44.39 69.79 42.25 C 71.38 44.12 73.10 45.87 74.84 47.60 L 73.96 48.77 L 75.04 49.02 C 75.33 50.96 76.64 52.48 77.76 54.01 C 78.74 60.80 74.58 67.91 67.88 69.78 C 64.06 71.15 60.48 67.41 56.71 69.06 C 56.91 68.40 57.31 67.08 57.51 66.42 L 56.77 64.76 C 60.80 68.49 67.74 69.87 71.99 65.75 C 69.55 66.38 67.06 67.42 64.50 66.72 C 65.92 66.39 67.33 65.98 68.71 65.51 C 68.59 65.29 68.36 64.85 68.24 64.64 C 70.37 63.23 71.54 60.97 72.42 58.66 C 70.95 59.49 69.50 60.35 68.05 61.22 C 66.09 58.48 63.94 55.86 61.49 53.54 C 63.92 54.60 66.14 56.07 68.34 57.54 C 71.30 54.09 68.94 49.37 65.75 47.02 C 65.05 46.60 64.36 46.16 63.69 45.70 C 62.51 44.89 61.19 44.30 59.81 43.93 C 60.49 44.79 61.23 45.60 62.04 46.35 C 61.97 46.71 61.83 47.43 61.76 47.79 C 61.23 47.05 60.69 46.30 60.16 45.56 C 58.69 46.22 57.23 46.91 55.76 47.58 C 56.88 46.73 58.02 45.92 59.16 45.11 C 55.86 45.10 52.46 44.65 49.22 45.45 C 47.24 46.30 45.53 47.62 43.69 48.72 C 46.45 48.10 48.91 46.62 51.61 45.88 C 53.03 46.19 54.39 46.73 55.67 47.40 C 51.41 47.70 47.09 48.42 43.82 51.40 C 45.02 51.21 46.22 51.03 47.42 50.85 C 44.17 56.75 41.49 63.50 43.46 70.30 C 45.58 77.37 51.06 82.77 57.40 86.26 C 50.34 84.08 45.73 77.91 41.82 72.03 C 42.49 74.00 43.20 75.97 44.20 77.79 C 43.55 79.06 42.89 80.33 42.21 81.59 C 40.74 78.66 39.37 75.68 37.92 72.74 C 38.86 79.79 42.81 86.35 48.46 90.64 C 53.72 94.69 60.15 96.76 66.37 98.84 C 51.53 98.68 36.82 87.80 33.93 72.94 C 32.53 66.64 33.70 60.00 36.14 54.10 C 37.36 50.76 40.20 48.47 42.08 45.55 C 35.73 46.30 32.20 52.59 29.87 57.88 C 27.20 63.45 28.32 69.69 27.72 75.61 C 25.79 67.15 26.15 57.66 30.76 50.08 C 37.29 38.88 51.72 32.01 64.37 36.18 L 64.52 35.25 C 63.68 35.05 61.99 34.66 61.14 34.46 C 66.34 33.40 71.24 36.69 75.35 39.52 C 77.03 39.76 78.71 40.05 80.39 40.36 C 78.57 35.91 74.94 32.80 71.47 29.68 Z" /><path d=" M 90.38 33.77 C 93.83 34.17 97.27 34.74 100.69 35.35 C 101.93 36.14 102.80 37.37 103.73 38.48 C 111.30 48.23 119.24 57.69 126.83 67.43 C 125.92 70.44 126.42 73.88 124.82 76.64 C 121.48 79.71 117.65 82.20 114.25 85.21 C 114.87 79.82 116.01 74.42 115.95 68.99 C 107.60 57.14 98.70 45.65 90.38 33.77 Z" /><path d=" M 3.13 49.23 C 6.14 47.04 9.17 44.90 12.18 42.73 C 11.37 47.82 10.66 52.92 9.99 58.03 C 9.66 59.39 10.57 60.52 11.27 61.57 C 19.60 73.12 28.01 84.61 36.27 96.21 C 32.30 95.33 28.29 94.64 24.31 93.79 C 16.70 83.17 8.84 72.72 1.14 62.16 C 2.01 57.88 2.53 53.55 3.13 49.23 Z" /><path d=" M 104.23 61.72 C 106.35 64.48 108.60 67.16 111.11 69.58 C 109.37 82.75 107.46 95.89 105.86 109.08 C 102.56 111.93 99.07 114.55 95.81 117.44 C 91.87 116.85 87.98 116.05 84.03 115.54 C 88.28 112.46 92.54 109.41 96.93 106.55 C 99.79 91.70 101.83 76.66 104.23 61.72 Z" /><path d=" M 81.66 85.84 C 85.10 83.67 87.87 80.65 90.69 77.75 C 90.77 78.55 90.95 80.15 91.04 80.95 L 90.46 78.73 C 85.62 85.67 77.16 89.58 68.89 90.54 C 61.93 91.51 55.08 88.98 49.00 85.79 C 46.99 84.76 46.05 82.55 44.58 80.94 C 44.96 80.58 45.34 80.21 45.71 79.85 C 50.44 86.69 58.95 90.19 67.09 90.05 C 72.17 89.67 77.13 88.16 81.66 85.84 Z" /><path d=" M 44.25 83.25 C 44.54 83.54 44.54 83.54 44.25 83.25 Z" /><path d=" M 81.30 83.24 C 81.83 83.82 81.83 83.82 81.30 83.24 Z" /><path d=" M 79.26 84.21 C 79.85 84.76 79.85 84.76 79.26 84.21 Z" /><path d=" M 77.21 85.22 C 77.80 85.77 77.80 85.77 77.21 85.22 Z" /><path d=" M 9.86 96.50 C 10.34 92.65 11.05 88.81 12.01 85.05 C 15.42 89.53 18.44 94.29 21.74 98.86 C 36.36 100.71 50.85 103.57 65.49 105.19 C 62.95 107.57 60.38 109.92 57.72 112.16 C 44.56 110.31 31.40 108.33 18.28 106.23 C 15.47 102.99 12.61 99.79 9.86 96.50 Z" /><path d=" M 58.07 86.12 C 60.98 84.50 58.31 89.43 58.07 86.12 Z" /><path d=" M 60.63 87.35 C 64.55 87.15 68.50 87.18 72.42 87.40 C 68.53 87.88 64.50 88.04 60.63 87.35 Z" /><path d=" M 60.54 115.66 C 71.87 107.32 83.33 99.15 94.65 90.79 C 93.89 94.62 93.48 98.53 92.46 102.30 C 84.74 108.74 76.47 114.51 68.56 120.71 C 66.05 122.44 63.87 124.73 61.09 126.00 C 56.45 125.29 51.81 124.55 47.16 123.88 C 45.10 120.89 43.03 117.91 41.02 114.88 C 46.30 115.84 51.68 116.01 56.96 116.94 C 58.35 117.42 59.46 116.30 60.54 115.66 Z" /></svg>