<svg width="714px" height="256px" viewBox="0 0 1395 500" version="1.1" xmlns="http://www.w3.org/2000/svg"><path fill="#000000" opacity="1.00" d=" M 222.73 0.00 L 223.45 0.00 C 224.90 4.87 225.87 9.88 227.44 14.72 C 227.75 15.82 228.91 16.30 229.67 17.05 C 231.20 15.65 232.52 13.38 234.89 13.52 C 240.35 13.27 245.73 14.47 251.10 15.33 C 256.36 16.18 261.68 15.34 266.97 15.37 C 273.00 15.21 279.03 15.67 285.06 15.77 C 287.74 15.82 289.67 13.61 292.03 12.66 C 294.73 12.62 296.84 14.56 299.08 15.79 C 302.62 18.11 306.96 18.31 311.00 19.05 C 334.03 23.23 356.43 30.94 377.08 41.96 C 381.34 44.14 386.29 44.29 390.64 46.24 C 392.56 48.71 393.71 51.88 396.54 53.53 C 415.31 65.94 432.14 81.22 446.54 98.50 C 449.88 102.83 455.88 104.10 461.08 103.56 C 468.26 102.53 475.48 100.68 481.68 96.78 C 484.48 95.31 487.22 92.76 490.63 93.48 C 484.45 98.19 477.70 102.10 471.40 106.63 C 469.71 107.77 468.62 109.56 468.07 111.50 C 477.69 106.86 485.80 99.56 495.36 94.79 C 494.59 96.15 493.68 97.44 492.37 98.32 C 485.29 103.45 477.86 108.87 473.88 116.91 C 471.24 121.92 468.42 127.89 470.47 133.58 C 476.47 144.99 482.22 156.66 486.02 169.00 C 486.13 175.08 484.65 181.08 483.99 187.11 C 479.91 172.38 474.54 158.00 467.67 144.35 C 463.73 135.73 451.88 132.18 443.67 136.63 C 429.91 142.83 417.67 152.00 407.21 162.82 C 401.33 159.92 397.11 154.79 392.04 150.80 C 400.09 147.96 408.18 144.99 415.47 140.48 C 423.78 135.34 431.02 128.62 437.28 121.15 C 441.01 116.65 441.65 110.03 439.27 104.74 C 436.73 99.02 432.88 93.93 428.40 89.58 C 403.45 64.00 372.23 44.57 338.22 33.61 C 317.21 26.78 295.18 23.23 273.10 22.84 C 286.04 38.32 296.56 55.67 305.60 73.66 C 309.73 66.67 312.76 59.12 315.62 51.55 C 316.14 49.71 318.23 50.22 319.64 50.28 C 319.97 52.18 320.54 54.10 320.33 56.05 C 319.78 58.62 317.96 60.77 317.68 63.41 C 317.13 69.91 315.51 76.51 316.93 83.00 C 317.69 84.55 319.72 83.77 321.06 83.94 C 329.01 83.51 336.98 83.41 344.93 82.84 C 345.36 84.46 345.79 86.09 346.22 87.72 C 339.38 89.76 332.36 91.20 325.66 93.68 C 322.24 95.17 318.47 98.62 319.25 102.66 C 334.46 138.62 346.24 175.99 355.22 213.97 C 356.03 216.74 356.05 220.42 358.97 221.93 C 363.05 224.01 367.87 223.89 372.28 223.18 C 383.93 220.75 395.57 218.30 407.20 215.77 C 406.47 219.27 405.97 222.82 405.64 226.37 C 395.78 228.52 385.92 230.62 376.03 232.61 C 373.13 233.27 369.90 233.60 367.61 235.68 C 363.17 239.85 361.59 246.42 363.33 252.22 C 369.41 284.82 373.42 317.85 374.34 351.01 C 374.98 382.12 373.65 413.95 363.37 443.60 C 401.60 426.20 434.29 397.15 456.87 361.80 C 459.28 358.54 457.72 354.23 455.79 351.16 C 450.88 343.15 441.87 339.31 434.40 334.20 C 434.75 331.78 435.08 329.36 435.40 326.94 C 439.77 329.34 444.31 331.56 449.22 332.60 C 450.75 333.06 452.49 333.13 453.84 334.06 C 456.30 344.28 457.88 354.71 460.10 364.99 C 461.00 365.00 462.79 365.02 463.69 365.04 C 446.97 391.45 424.86 414.48 398.98 432.03 C 396.15 433.66 395.38 437.02 393.86 439.68 C 390.64 439.67 387.21 439.54 384.36 441.28 C 370.09 449.48 354.98 456.24 339.26 461.15 C 337.16 461.89 334.36 462.41 333.83 465.00 C 330.52 476.38 332.71 488.31 333.13 499.89 C 331.89 498.98 331.14 497.65 330.90 496.15 C 329.52 490.16 328.04 484.20 326.67 478.21 C 326.38 476.81 325.88 475.45 324.79 474.47 C 325.92 482.44 328.07 490.23 329.40 498.17 C 329.22 498.63 328.85 499.54 328.67 500.00 L 328.32 500.00 C 326.48 495.10 324.49 490.26 322.77 485.32 C 321.09 481.01 319.52 476.26 315.65 473.40 C 312.29 470.92 308.26 468.34 303.89 469.35 C 290.68 471.37 277.30 472.04 263.96 471.90 C 260.78 471.53 258.83 474.64 255.98 475.23 C 253.34 474.31 251.00 472.73 248.40 471.72 C 244.79 470.23 240.83 470.14 237.03 469.56 C 213.54 466.22 190.59 459.18 169.28 448.77 C 165.49 446.91 161.16 447.20 157.16 446.14 C 155.63 444.42 156.05 441.36 153.60 440.37 C 125.37 423.72 100.67 401.03 81.94 374.11 C 80.09 371.05 76.61 369.79 73.59 368.24 C 73.48 364.88 73.57 361.31 71.78 358.32 C 66.41 349.03 61.60 339.41 57.57 329.46 C 55.09 323.64 53.56 317.34 49.83 312.13 C 45.82 305.75 38.47 301.98 31.05 301.53 C 21.66 299.84 12.30 302.24 2.97 302.89 C 2.40 302.62 1.25 302.08 0.67 301.81 C 11.45 298.70 22.75 297.64 33.43 294.16 C 22.11 294.39 11.02 297.11 0.00 299.50 L 0.00 297.56 C 8.02 293.60 17.36 293.48 25.36 289.45 C 31.01 286.35 35.91 281.88 39.53 276.55 C 43.08 270.33 41.28 262.79 41.13 256.01 C 40.68 248.00 40.77 239.97 41.09 231.96 C 41.30 228.19 39.52 224.75 38.33 221.28 C 39.79 219.11 41.42 217.01 42.44 214.59 C 43.26 211.76 43.42 208.80 43.93 205.91 C 47.26 186.14 53.13 166.78 61.58 148.60 C 63.78 144.55 62.25 139.11 58.75 136.29 C 53.65 131.85 47.65 128.67 42.10 124.86 C 42.54 124.70 43.42 124.38 43.85 124.22 C 50.45 126.67 56.35 130.73 62.95 133.20 C 57.31 128.53 49.92 126.54 44.39 121.71 C 45.01 121.74 46.24 121.81 46.86 121.84 C 53.04 124.49 59.00 128.57 65.99 128.54 C 70.77 128.37 74.27 124.50 76.77 120.82 C 94.17 93.56 117.50 70.15 144.57 52.48 C 147.31 50.76 147.90 47.24 150.17 45.12 C 154.05 43.75 158.46 44.30 162.09 42.12 C 180.31 32.44 199.83 25.20 219.99 20.79 C 222.68 20.49 224.24 17.55 224.00 15.05 C 223.77 10.02 223.11 5.02 222.73 0.00 M 234.74 25.81 C 233.46 26.17 233.31 27.76 233.16 28.86 C 232.66 35.96 235.17 42.74 236.24 49.68 C 234.42 49.84 232.60 50.02 230.79 50.20 C 229.95 46.10 229.57 41.91 228.43 37.87 C 227.60 35.52 226.96 32.60 224.36 31.60 C 219.48 38.77 215.97 46.72 212.45 54.61 C 209.64 56.17 206.59 57.22 203.50 58.05 C 206.42 48.00 211.59 38.89 216.39 29.67 C 209.48 30.61 202.92 33.16 196.31 35.28 C 149.05 51.75 107.78 84.82 81.49 127.40 C 79.96 130.10 79.53 133.86 81.63 136.38 C 85.86 141.57 91.77 144.94 97.48 148.25 C 96.65 149.94 95.84 151.63 95.03 153.33 C 88.94 149.82 82.28 145.93 74.96 146.89 C 70.31 147.21 68.61 152.26 66.70 155.74 C 51.58 189.53 45.92 227.32 49.23 264.12 C 49.56 270.03 52.86 276.25 58.61 278.46 C 62.24 279.85 66.16 278.87 69.86 278.36 C 72.26 277.91 74.59 279.28 76.99 278.85 C 118.06 271.51 159.12 264.10 200.15 256.50 C 205.66 255.14 211.24 253.96 216.90 253.40 C 259.32 245.66 301.68 237.57 343.93 228.99 C 346.69 228.73 347.84 225.31 347.08 222.99 C 338.74 186.52 327.90 150.58 313.90 115.87 C 313.20 115.92 311.79 116.02 311.09 116.07 C 311.34 118.72 311.24 121.45 311.98 124.04 C 315.19 131.00 318.03 138.14 320.43 145.43 C 329.29 168.35 336.01 192.04 341.20 216.06 C 342.33 220.17 340.48 224.89 336.67 226.89 C 334.16 227.84 331.44 227.97 328.83 228.52 C 244.70 243.66 160.63 259.14 76.45 274.02 C 75.82 272.89 74.93 271.86 74.61 270.59 C 72.36 256.49 73.98 242.19 73.45 228.01 C 73.64 223.38 74.29 218.78 75.33 214.27 C 76.14 210.28 79.28 207.42 81.11 203.93 C 81.84 201.14 78.77 199.50 78.38 196.99 C 78.90 191.16 81.38 185.77 83.14 180.26 C 85.95 171.76 89.06 163.28 93.68 155.59 C 97.55 153.69 98.96 149.32 99.26 145.31 C 104.52 134.76 111.63 125.24 119.27 116.31 C 141.57 91.25 169.14 70.11 201.01 58.89 C 205.32 60.07 209.17 57.53 213.04 56.01 C 213.87 54.41 215.17 53.13 217.03 52.87 C 221.96 51.77 227.11 49.64 232.10 51.65 C 235.54 52.50 237.71 49.01 240.94 49.06 C 249.61 48.66 258.26 46.94 266.96 47.76 C 271.71 50.35 275.94 54.02 278.12 59.08 C 278.04 60.95 277.92 62.82 277.73 64.68 C 282.98 65.42 285.04 70.55 287.40 74.61 C 288.95 77.45 291.16 79.92 292.30 82.99 C 290.72 84.58 288.92 86.00 286.76 86.68 C 281.88 88.34 276.99 89.95 272.09 91.54 C 272.62 95.20 273.28 98.84 273.85 102.50 C 281.42 101.56 288.88 99.83 296.51 99.32 C 297.65 107.64 298.03 116.05 298.40 124.44 C 299.58 116.67 299.62 108.79 300.33 100.97 C 300.57 98.99 300.57 95.96 297.99 95.63 C 290.58 95.37 283.44 98.99 276.19 98.84 C 276.04 97.28 275.89 95.72 275.73 94.17 C 283.38 91.63 291.06 89.16 298.65 86.45 C 300.53 85.53 298.98 83.01 298.48 81.60 C 288.86 62.52 278.07 43.77 263.94 27.62 C 262.08 28.69 260.41 30.11 259.86 32.28 C 256.70 30.42 253.98 27.90 250.79 26.08 C 249.01 25.07 247.13 23.65 244.95 24.23 C 241.54 24.68 238.04 24.80 234.74 25.81 M 79.45 288.60 C 77.27 289.04 75.48 290.45 73.48 291.33 C 69.30 293.29 64.50 294.82 61.80 298.85 C 59.04 303.02 58.02 308.50 59.57 313.31 C 68.54 340.17 82.76 365.26 101.18 386.77 C 137.40 429.42 190.32 457.47 246.03 463.12 C 264.82 465.09 283.96 465.01 302.55 461.40 C 304.89 460.95 308.28 458.99 306.78 456.16 C 301.75 451.67 296.29 447.31 292.89 441.38 C 295.82 441.00 298.77 440.83 301.72 440.81 C 304.17 443.81 306.89 446.62 310.02 448.92 C 311.11 449.72 313.05 450.62 313.87 449.01 C 313.95 445.36 313.41 441.74 313.35 438.10 C 316.16 437.54 318.96 436.95 321.77 436.37 C 323.78 440.76 324.72 446.11 328.89 449.09 C 333.28 451.95 338.86 452.25 343.90 451.46 C 346.20 450.87 349.06 450.47 350.13 448.02 C 355.09 438.66 357.87 428.32 359.95 417.99 C 363.79 397.92 364.69 377.40 364.47 357.01 C 363.88 320.43 359.31 284.00 352.41 248.10 C 351.87 246.22 352.03 243.93 350.61 242.44 C 347.91 240.45 344.48 238.87 341.07 239.78 C 254.09 257.31 166.73 272.72 79.45 288.60 Z" /><path d=" M 299.44 54.26 C 303.14 55.14 307.38 54.47 310.64 56.68 C 309.42 60.35 307.77 63.85 305.94 67.25 C 304.10 62.76 301.65 58.57 299.44 54.26 Z" /><path d=" M 324.66 60.27 C 327.97 60.23 330.75 62.35 333.96 62.83 C 337.14 63.67 340.72 63.46 343.51 65.42 C 346.11 67.15 349.25 67.66 352.08 68.90 C 356.18 70.68 360.23 72.63 364.03 74.99 C 377.57 84.24 391.90 92.83 402.58 105.53 C 407.21 109.69 408.19 115.99 410.01 121.61 C 406.03 126.98 401.64 132.15 396.03 135.89 C 391.81 139.11 386.58 141.60 383.93 146.43 C 385.90 147.33 387.85 148.28 389.76 149.30 C 390.65 153.25 394.63 155.08 397.24 157.79 C 399.84 159.77 401.88 162.75 405.01 163.89 C 408.26 163.60 411.56 163.70 414.37 165.59 C 412.57 178.72 410.65 191.83 408.99 204.97 C 408.80 207.93 408.55 212.32 405.02 213.15 C 391.89 216.25 378.31 219.64 364.77 217.24 C 361.05 216.63 359.44 212.63 358.51 209.42 C 355.96 200.34 354.07 191.09 351.32 182.06 C 344.23 155.48 333.98 129.92 324.82 104.02 C 324.23 101.74 325.53 99.48 326.52 97.50 C 334.26 94.79 342.37 93.15 350.25 90.85 C 349.97 87.46 349.66 84.07 349.29 80.69 C 341.70 80.25 334.09 79.88 326.53 80.98 C 325.96 79.86 325.05 79.20 323.81 78.98 C 322.50 72.71 325.96 66.54 324.66 60.27 Z" /><path d=" M 784.49 152.57 C 799.93 149.97 816.18 155.10 827.99 165.21 C 835.40 171.18 840.39 180.38 840.38 190.01 C 840.33 197.71 840.13 205.46 838.81 213.08 C 834.90 240.70 831.07 268.33 827.16 295.95 C 825.48 306.58 824.84 317.57 820.53 327.58 C 813.70 344.33 799.08 357.93 781.46 362.51 C 767.35 366.49 751.68 364.40 739.16 356.76 C 730.68 351.79 723.15 344.45 720.24 334.83 C 718.19 326.74 719.30 318.33 719.69 310.11 C 723.88 280.48 728.07 250.85 732.18 221.22 C 734.03 209.38 734.72 197.04 740.14 186.13 C 748.21 168.55 765.23 155.26 784.49 152.57 M 784.39 186.47 C 777.55 189.14 772.82 195.74 772.05 202.98 C 766.66 240.28 761.58 277.61 756.20 314.91 C 754.18 323.79 763.44 332.28 772.07 330.94 C 778.49 329.38 784.21 324.62 786.26 318.24 C 787.74 313.29 788.19 308.12 788.92 303.03 C 793.81 269.00 798.53 234.93 803.31 200.88 C 805.06 191.13 793.32 182.22 784.39 186.47 Z" /><path d=" M 419.21 155.55 C 431.11 155.59 443.01 155.48 454.91 155.60 C 459.81 180.08 465.05 204.48 470.08 228.93 C 472.50 239.96 474.47 251.09 477.14 262.06 C 482.20 226.58 487.22 191.09 492.21 155.60 C 504.38 155.48 516.56 155.58 528.73 155.56 C 519.07 224.02 509.34 292.47 499.69 360.94 C 487.69 360.96 475.69 360.93 463.69 360.95 C 456.25 325.50 448.92 290.02 441.50 254.56 C 436.45 289.99 431.32 325.41 426.51 360.86 C 414.37 361.05 402.24 360.89 390.11 360.94 C 395.14 324.96 400.39 289.01 405.24 253.00 C 407.59 240.74 409.10 228.33 411.10 216.00 C 413.00 195.78 416.46 175.69 419.21 155.55 Z" /><path d=" M 503.03 360.92 C 512.76 292.49 522.22 224.01 531.87 155.56 C 563.66 155.55 595.45 155.54 627.24 155.56 C 625.87 165.40 624.54 175.24 623.06 185.06 C 604.14 185.10 585.23 185.02 566.31 185.10 C 563.62 204.48 560.50 223.79 557.81 243.16 C 574.85 243.19 591.90 243.16 608.94 243.18 C 607.46 253.16 606.13 263.16 604.67 273.14 C 587.52 273.17 570.38 273.13 553.24 273.16 C 550.41 292.43 547.49 311.69 544.65 330.95 C 563.93 330.97 583.22 330.95 602.51 330.96 C 601.16 340.96 599.65 350.94 598.32 360.94 C 566.56 360.94 534.79 360.97 503.03 360.92 Z" /><path d=" M 633.26 155.54 C 646.63 155.56 659.99 155.54 673.36 155.55 C 677.04 171.66 680.79 187.75 684.40 203.88 C 693.16 187.75 701.66 171.47 710.63 155.46 C 723.52 155.67 736.42 155.48 749.32 155.56 C 731.61 188.32 713.84 221.06 696.13 253.83 C 705.26 289.52 714.36 325.22 723.40 360.94 C 710.38 360.85 697.36 361.15 684.35 360.79 C 679.96 342.05 675.03 323.45 670.42 304.77 C 660.48 323.28 651.05 342.10 641.54 360.84 C 628.33 361.09 615.12 360.86 601.91 360.96 C 620.60 325.24 639.32 289.54 658.01 253.82 C 658.95 252.32 657.86 250.59 657.63 249.05 C 649.46 217.89 641.38 186.71 633.26 155.54 Z" /><path d=" M 850.02 155.58 C 882.01 155.52 914.00 155.55 945.99 155.56 C 944.76 165.19 943.23 174.77 941.99 184.40 C 923.08 184.42 904.16 184.40 885.25 184.41 C 882.35 203.76 879.46 223.11 876.63 242.48 C 893.68 242.54 910.73 242.48 927.78 242.50 C 926.31 252.51 925.02 262.54 923.48 272.54 C 906.39 272.41 889.31 272.56 872.22 272.46 C 867.54 301.91 863.48 331.47 858.84 360.93 C 846.41 360.96 833.98 360.94 821.56 360.94 C 831.24 292.52 840.67 224.05 850.02 155.58 Z" /><path d=" M 920.64 360.90 C 930.17 292.42 939.73 223.94 949.46 155.48 C 970.30 155.64 991.15 155.50 1012.00 155.55 C 1022.07 155.99 1031.49 161.34 1037.95 168.95 C 1041.61 173.17 1043.35 178.60 1045.21 183.78 C 1050.22 198.39 1047.95 214.35 1043.72 228.86 C 1040.70 239.76 1035.49 250.35 1027.21 258.22 C 1023.39 261.93 1018.92 264.86 1014.48 267.76 C 1016.23 278.19 1017.74 288.66 1019.71 299.05 C 1012.08 319.65 1004.08 340.13 997.15 360.99 C 995.68 360.98 994.22 360.97 992.77 360.97 C 988.15 332.25 983.77 303.49 979.26 274.75 C 975.80 274.48 972.35 274.24 968.91 274.03 C 964.63 302.99 960.55 331.98 956.29 360.94 C 944.41 360.92 932.52 361.00 920.64 360.90 M 981.54 184.78 C 978.51 205.22 975.37 225.64 972.43 246.09 C 977.63 246.05 982.84 246.37 988.04 246.12 C 993.30 246.04 998.95 244.68 1002.37 240.36 C 1009.82 230.97 1010.48 218.48 1011.71 207.04 C 1012.13 200.50 1011.89 192.13 1005.60 188.29 C 998.38 183.91 989.60 184.90 981.54 184.78 Z" /><path d=" M 1075.06 155.56 C 1085.42 155.54 1095.78 155.54 1106.13 155.56 C 1112.26 224.01 1118.29 292.48 1124.33 360.94 C 1111.37 360.93 1098.41 360.98 1085.45 360.92 C 1084.75 346.41 1084.78 331.88 1083.91 317.39 C 1073.06 317.57 1062.22 317.42 1051.37 317.47 C 1046.43 331.94 1041.56 346.44 1036.65 360.93 C 1024.50 360.97 1012.35 360.93 1000.21 360.95 C 1025.11 292.47 1050.11 224.02 1075.06 155.56 M 1061.01 287.87 C 1067.72 287.83 1074.43 287.87 1081.14 287.85 C 1080.24 270.10 1079.26 252.36 1078.44 234.61 C 1072.23 252.22 1066.89 270.14 1061.01 287.87 Z" /><path d=" M 1127.77 360.92 C 1137.44 292.47 1147.00 224.00 1156.65 155.55 C 1168.44 155.62 1180.24 155.41 1192.03 155.66 C 1198.62 189.12 1205.74 222.48 1212.19 255.96 C 1228.64 222.56 1245.06 189.14 1261.29 155.63 C 1272.85 155.45 1284.42 155.58 1295.99 155.56 C 1286.46 224.03 1276.90 292.49 1267.31 360.94 C 1254.86 360.94 1242.41 360.96 1229.97 360.93 C 1233.34 337.17 1236.47 313.37 1239.75 289.59 C 1240.82 281.16 1242.23 272.77 1243.01 264.30 C 1232.91 284.95 1223.15 305.77 1213.14 326.46 C 1205.83 326.45 1198.52 326.49 1191.21 326.44 C 1187.08 304.07 1182.75 281.73 1178.52 259.38 C 1174.08 293.21 1170.00 327.09 1165.70 360.94 C 1153.05 360.94 1140.41 360.97 1127.77 360.92 Z" /><path d=" M 1270.82 360.94 C 1280.36 292.46 1289.95 224.00 1299.61 155.54 C 1331.40 155.56 1363.20 155.54 1395.00 155.55 L 1395.00 156.24 C 1393.34 165.72 1392.32 175.29 1390.81 184.79 C 1371.93 184.78 1353.06 184.78 1334.19 184.79 C 1331.19 204.13 1328.35 223.50 1325.54 242.87 C 1342.57 242.89 1359.61 242.86 1376.64 242.88 C 1375.25 252.88 1373.82 262.87 1372.44 272.86 C 1355.29 272.87 1338.14 272.84 1321.00 272.88 C 1318.15 292.11 1315.24 311.34 1312.42 330.58 C 1331.70 330.60 1350.99 330.56 1370.28 330.60 C 1368.80 340.70 1367.51 350.84 1365.94 360.93 C 1334.23 360.96 1302.53 360.94 1270.82 360.94 Z" /><path d=" M 466.64 203.33 C 472.12 201.12 478.01 200.22 483.75 198.95 C 482.28 202.33 481.74 205.99 481.47 209.64 C 477.26 210.94 472.94 211.83 468.61 212.59 C 467.95 209.50 467.29 206.42 466.64 203.33 Z" /><path d=" M 396.58 233.39 C 399.64 232.43 402.83 231.99 406.03 232.08 C 404.21 244.77 401.48 257.32 399.92 270.05 C 395.66 301.24 391.31 332.41 387.04 363.59 C 399.36 363.58 411.68 363.51 423.99 363.62 C 424.07 369.85 417.84 372.44 414.76 376.93 C 412.32 380.12 410.67 383.91 407.68 386.66 C 401.15 393.03 392.61 396.74 385.78 402.75 C 382.88 402.90 379.45 404.80 376.84 402.98 C 376.09 398.33 376.42 393.53 377.43 388.94 C 377.74 382.98 377.35 377.01 377.56 371.05 C 378.81 364.79 379.10 358.23 377.68 351.98 C 377.09 345.27 378.06 338.47 377.22 331.79 C 375.83 327.27 377.16 322.51 376.05 317.97 C 375.03 313.69 376.01 309.21 374.68 304.96 C 374.64 297.27 372.68 289.76 372.41 282.08 C 371.02 273.39 369.96 264.65 368.57 255.97 C 368.53 251.93 367.96 247.61 369.85 243.87 C 371.14 241.58 373.29 239.76 375.75 238.83 C 382.48 236.26 389.60 235.04 396.58 233.39 Z" /><path d=" M 79.70 294.17 C 165.71 277.56 251.87 261.69 337.91 245.29 C 342.75 244.47 348.22 247.45 349.33 252.41 C 353.68 270.73 354.60 289.54 357.41 308.08 C 357.21 312.44 358.90 316.61 358.47 320.97 C 358.03 324.70 359.59 328.24 359.50 331.94 C 359.43 349.29 359.52 366.64 359.46 383.98 C 359.86 388.59 354.87 390.26 352.60 393.47 C 349.06 395.71 345.15 392.73 342.64 390.25 C 342.51 391.87 342.37 393.48 342.25 395.11 C 341.44 395.03 339.82 394.87 339.02 394.79 C 339.69 401.77 344.52 407.79 344.20 414.89 C 342.49 417.96 337.95 416.59 335.95 419.07 C 335.14 423.13 336.61 427.16 337.29 431.14 C 333.07 433.12 328.66 434.81 324.09 435.76 C 320.70 434.72 317.32 436.11 314.08 437.06 C 311.07 439.19 307.38 439.70 303.87 440.51 C 300.42 438.15 296.21 440.32 292.42 440.31 C 292.14 440.80 291.58 441.76 291.31 442.25 C 272.49 442.59 253.55 442.18 234.96 439.05 C 214.14 434.21 193.15 428.48 174.62 417.51 C 163.64 411.09 152.87 404.18 143.19 395.89 C 133.52 386.85 123.80 377.74 115.79 367.15 C 107.34 355.96 99.29 344.36 93.25 331.67 C 88.76 322.42 84.11 313.07 82.01 302.95 C 81.02 300.08 79.86 297.23 79.70 294.17 Z" /></svg>